<svg xmlns="http://www.w3.org/2000/svg" width="24" height="24" fill="none" xmlns:v="https://vecta.io/nano"><g stroke="#737530" stroke-width="1.2" stroke-miterlimit="10"><path d="M8.67 3.667v2.5m6.66-2.5v2.5M5.125 8.25h13.542" stroke-linecap="round" stroke-linejoin="round"/><path d="M15.542 21.167c2.647 0 4.792-2.146 4.792-4.792s-2.145-4.792-4.792-4.792-4.792 2.146-4.792 4.792 2.146 4.792 4.792 4.792z" stroke-linejoin="round"/><path d="M15.75 14.5v2.492L17 18.25m2.5-4.999v-.892-3.275c0-2.5-1.25-4.167-4.167-4.167H8.667C5.75 4.917 4.5 6.584 4.5 9.084v7.083c0 2.5 1.25 4.167 4.167 4.167h3.958" stroke-linejoin="round" stroke-linecap="round"/></g><g fill="#737530"><circle cx="7.833" cy="12.833" r=".833"/><circle cx="7.833" cy="16.162" r=".833"/></g></svg>