<svg xmlns="http://www.w3.org/2000/svg" width="24" height="24" fill="none" xmlns:v="https://vecta.io/nano"><rect width="24" height="24" rx="8" fill="#737530" fill-opacity=".2"/><g clip-path="url(#A)"><g fill="#737530"><path d="M13.086 18.999c-.464-.101-.761-.423-1.055-.767a8.52 8.52 0 0 1-1.682-2.939c-.104-.269-.171-.552-.199-.84a.97.97 0 0 1 .078-.441c.06-.139.152-.261.268-.358.125-.111.269-.203.405-.302.084-.061.133-.041.134.068v.542c0 .225.125.364.308.375s.325-.135.325-.375V8.856a.74.74 0 0 1 .09-.399.5.5 0 0 1 .564-.259.52.52 0 0 1 .283.167c.074.085.119.191.128.302.004.078.004.156 0 .234v4.944a.6.6 0 0 0 .033.266.3.3 0 0 0 .138.161c.064.035.139.045.211.028.067-.006.13-.036.176-.085s.073-.113.075-.18a2.09 2.09 0 0 0 .008-.215v-2.852a2.68 2.68 0 0 1 .02-.323c.013-.125.071-.24.163-.325a.51.51 0 0 1 .338-.135.52.52 0 0 1 .534.397 1.13 1.13 0 0 1 .033.299v2.959.199a.29.29 0 0 0 .275.284.3.3 0 0 0 .335-.216c.021-.072.029-.148.024-.223v-2.057c-.005-.073.005-.146.03-.215s.063-.132.113-.185a.54.54 0 0 1 .177-.125.53.53 0 0 1 .425 0 .54.54 0 0 1 .177.125c.05.053.088.117.113.185s.035.142.029.215v1.948a1.35 1.35 0 0 0 0 .18.32.32 0 0 0 .314.292.31.31 0 0 0 .312-.31v-1.082a.96.96 0 0 1 .027-.268c.035-.122.113-.227.22-.296s.234-.097.36-.079a.5.5 0 0 1 .454.5l-.04 2.704c-.11 1.051-.452 2.064-1.001 2.966-.209.347-.542.517-.916.626L13.087 19zm5.988-4.291c-.086.259-.19.348-.409.36-.125 0-.178-.034-.169-.165.05-.703.018-1.406.02-2.11a1.18 1.18 0 0 0-.42-.942.31.31 0 0 1-.083-.113c-.019-.044-.026-.091-.023-.138V6.675c0-.144.047-.211.199-.201.132.007.265.007.397 0a.44.44 0 0 1 .49.332l-.001 7.901z"/></g><g fill="#fff"><path d="M6.721 9.339v-4.04c0-.24.01-.25.25-.272 1.613-.141 3.227.271 4.575 1.169.058.03.105.077.136.134s.045.122.04.187v.956a.22.22 0 0 1-.03.128c-.023.039-.055.07-.096.091-.18.106-.327.26-.427.443a1.15 1.15 0 0 0-.139.599v3.518c.007.068-.007.136-.039.197a.34.34 0 0 1-.141.142l-.552.375c-.282.177-.507.432-.648.733-.007.024-.019.047-.035.066s-.037.035-.059.045a.18.18 0 0 1-.073.016c-.025 0-.05-.005-.073-.016a7.31 7.31 0 0 0-2.468-.188c-.215.021-.229 0-.229-.225l.006-4.059zm10.633-1.04v3.012c0 .173-.029.281-.23.268-.106-.008-.216.125-.303.047-.066-.056-.066-.186-.105-.279a1.16 1.16 0 0 0-1.427-.671c-.148.046-.188.019-.216-.134-.143-.751-.78-1.146-1.517-.936-.146.041-.185 0-.184-.134v-.775c-.001-.255-.085-.503-.24-.707s-.371-.35-.617-.42a.19.19 0 0 1-.158-.142c-.006-.024-.007-.05-.004-.074v-.883c-.004-.048.006-.096.028-.139a.26.26 0 0 1 .097-.103 7.15 7.15 0 0 1 3.105-1.17 6.83 6.83 0 0 1 1.492-.035c.274.023.279.024.279.298v2.976z"/></g><path d="M5 10.771V7.108a1.85 1.85 0 0 1 .018-.288c.002-.045.014-.09.033-.131s.048-.077.082-.107.074-.052.118-.066.089-.019.134-.015h.542c.106 0 .155.044.155.149v.198 6.926.199c.006.283.125.394.412.355l.771-.079c.703-.04 1.408.031 2.09.209.047.009.089.035.119.072s.046.084.046.132c.058.414.06.414-.355.414H5.521c-.395 0-.521-.12-.521-.517v-3.789z" fill="#737530"/></g><defs><clipPath id="A"><path fill="#fff" transform="translate(5 5)" d="M0 0h14.075v14H0z"/></clipPath></defs></svg>