<svg xmlns="http://www.w3.org/2000/svg" width="26" height="24" fill="#444" xmlns:v="https://vecta.io/nano"><path d="M7.84 12.935a.72.72 0 0 0-.718.718.72.72 0 0 0 .718.718h1.745a.72.72 0 0 0 .718-.718.72.72 0 0 0-.718-.718H7.84zm6.432 0a.72.72 0 0 0-.718.718.72.72 0 0 0 .718.718h1.745a.72.72 0 0 0 .718-.718.72.72 0 0 0-.718-.718h-1.745zm-.442 8.737a3.66 3.66 0 0 1-1.902.603c-3.332 0-6.9-6.073-6.9-10.347 0-.144.006-.287.017-.431a17.93 17.93 0 0 0 9.124-2.488 17.8 17.8 0 0 0 4.533 1.609 6.62 6.62 0 0 1 .127 1.31c0 1.936-.736 4.24-1.844 6.182a12.56 12.56 0 0 0 2.384-.914c.753-1.793 1.184-3.671 1.184-5.268-.001-.344-.022-.687-.063-1.029a8.62 8.62 0 0 0-17.167.517 7.47 7.47 0 0 0-.017.511c0 4.763 3.861 12.071 8.624 12.071 1.804 0 3.47-1.04 4.849-2.597a14.89 14.89 0 0 1-2.896.27h-.052zm9.914-8.061a13.3 13.3 0 0 0 .111-1.682 12.65 12.65 0 0 0-.085-1.416c-.353-2.955-1.797-5.672-4.051-7.616A11.93 11.93 0 0 0 11.592.005C8.617.089 5.781 1.281 3.641 3.349a11.93 11.93 0 0 0-3.616 7.832L0 11.929a.72.72 0 0 0 .718.718.72.72 0 0 0 .718-.718l.022-.652a10.49 10.49 0 0 1 2.045-5.601 10.48 10.48 0 0 1 4.767-3.58 10.49 10.49 0 0 1 5.949-.403 10.48 10.48 0 0 1 5.207 2.905 10.58 10.58 0 0 1 2.917 6.079 11.16 11.16 0 0 1 .076 1.253 12.31 12.31 0 0 1-.179 2.041l-.112.664.656.155c.389.092.735.313.982.628s.38.704.377 1.103c0 .473-.187.927-.521 1.262s-.787.524-1.26.525c-.46.003-.903-.177-1.23-.5l-.382-.377-.47.259c-2.176 1.239-4.667 1.816-7.166 1.662a1.35 1.35 0 0 0-.616-.59c-.264-.125-.561-.16-.847-.101s-.545.209-.738.428-.31.495-.332.786a1.35 1.35 0 0 0 .207.828c.157.246.389.435.663.537s.573.113.853.031.526-.254.7-.488l.877.026a14.04 14.04 0 0 0 6.663-1.631 3.18 3.18 0 0 0 1.82.565c.731-.002 1.439-.251 2.009-.708a3.23 3.23 0 0 0 1.129-1.806 3.22 3.22 0 0 0-.244-2.116 3.23 3.23 0 0 0-1.511-1.502z"/></svg>