<svg xmlns="http://www.w3.org/2000/svg" width="24" height="24" fill="none" xmlns:v="https://vecta.io/nano"><rect width="24" height="24" rx="8" fill="#fff"/><rect width="24" height="24" rx="8" fill="#737530" fill-opacity=".2"/><g clip-path="url(#A)"><path d="M20.604 12.19c-.029-.001-.057-.011-.081-.028s-.041-.042-.05-.069l-.792-1.532-.663-1.285c-.037-.086-.1-.158-.18-.206s-.173-.072-.266-.066h-2.409c-.142 0-.147-.014-.132-.156.028-.276.097-.549.077-.83A1.09 1.09 0 0 0 15.041 7h-.123-8.01c-.194 0-.345.051-.446.222a.72.72 0 0 0-.063.269l-.055.44c-.008.026-.008.053 0 .079l-.109 1.117H4.942a.67.67 0 0 0-.215.02c-.091.029-.169.089-.22.17s-.072.177-.058.272a.39.39 0 0 0 .355.333c.051.005.103 0 .155 0h1.195l-.112 1.123H3.399a.4.4 0 0 0-.399.399.4.4 0 0 0 .399.399h2.566l-.117 1.17h-.291a.71.71 0 0 0-.225.024.41.41 0 0 0-.28.423.39.39 0 0 0 .336.354c.097.013.194.017.291.013.068 0 .09.025.084.097l-.119 1.253c-.021.154-.008.31.036.458a1.1 1.1 0 0 0 .22.403c.101.117.226.212.366.278a1.1 1.1 0 0 0 .448.103c.097 0 .205-.033.285.015s.066.173.097.261c.258.648.729 1.026 1.422 1.126l.071.014h.269c.264-.027.52-.108.753-.237a1.82 1.82 0 0 0 .852-1.06c.003-.019.011-.038.021-.054s.024-.03.04-.042a.15.15 0 0 1 .053-.023c.019-.004.039-.004.058-.001h3.503a1.28 1.28 0 0 0 .777-.24c.009-.01.02-.018.033-.024s.026-.008.039-.008.027.003.039.008.024.013.033.024a1.01 1.01 0 0 0 .647.233c.027-.004.055.004.077.021s.036.041.04.069c.216.77.719 1.213 1.514 1.321a.15.15 0 0 1 .03.009h.269c.233-.027.459-.093.67-.194a1.81 1.81 0 0 0 .929-1.084c.003-.023.011-.045.024-.065s.028-.037.048-.05a.17.17 0 0 1 .133-.027 1.24 1.24 0 0 0 1.068-.496c.161-.204.257-.452.273-.712l.161-1.767.061-.626v-.33c-.026-.085-.078-.159-.149-.211s-.158-.08-.246-.079zM8.742 17.024a.92.92 0 0 1-.665-.273.92.92 0 0 1-.267-.667c.002-.261.107-.511.292-.696s.435-.29.696-.292a.95.95 0 0 1 .944.952 1 1 0 0 1-1 .976zm8.76 0c-.124 0-.247-.025-.362-.074s-.218-.12-.304-.21a.92.92 0 0 1-.197-.312c-.044-.116-.064-.24-.06-.364a1 1 0 0 1 .988-.971.95.95 0 0 1 .672.284.95.95 0 0 1 .271.677c-.007.262-.117.51-.305.691s-.441.281-.703.278zm2.656-3.912l-.139 1.531-.045.493c-.036.332-.205.486-.556.486-.107.027-.155-.032-.194-.147-.424-1.273-2.068-1.594-2.976-.583a1.75 1.75 0 0 0-.382.644c-.002.015-.008.03-.017.043s-.02.023-.033.031-.028.013-.043.014-.031 0-.045-.006c-.042-.004-.084-.017-.121-.037s-.07-.048-.096-.082-.046-.072-.057-.113-.014-.084-.008-.126l.135-1.457.132-1.49.136-1.48.07-.801.016-.144c0-.011.002-.022.007-.033s.012-.019.02-.026.019-.012.03-.015.022-.003.033-.001h.93c.08 0 .09.047.084.109l-.088.971-.088.987a1.08 1.08 0 0 0 .994 1.107c.574.036 1.15.007 1.726.014h.475c.077-.001.109.02.1.111z" fill="#737530"/><path d="M10.916 8.414l.223.011.313.051c1.193.286 1.942 1.022 2.247 2.214.039.154.043.314.071.47l-.024.525-.079.329c-.329 1.105-1.053 1.796-2.173 2.071-.152.038-.308.042-.461.07l-.524-.024-.339-.079a2.87 2.87 0 0 1-2.112-2.428l-.03-.37.011-.222a.47.47 0 0 0 .016-.061c.042-.432.187-.848.423-1.212a2.85 2.85 0 0 1 1.999-1.306c.145-.023.291-.019.44-.04zm.378 3.315l.036-.762c.004-.053-.003-.106-.019-.156-.032-.093-.096-.171-.181-.221s-.184-.069-.281-.053-.185.065-.249.14-.1.169-.101.267l-.07 1.501a.43.43 0 0 0 .029.185c.034.087.097.159.178.206s.175.065.268.052.179-.058.243-.127.102-.159.107-.253l.041-.779zm-.754-1.819a.42.42 0 0 0 .106.31.42.42 0 0 0 .298.138c.084.004.167-.017.239-.06s.13-.107.166-.183.049-.161.037-.244-.049-.161-.105-.223-.13-.107-.211-.128-.167-.017-.246.011-.148.079-.199.146-.08.148-.085.232z" fill="#fff"/></g><defs><clipPath id="A"><path fill="#fff" transform="translate(3 7)" d="M0 0h18v10.834H0z"/></clipPath></defs></svg>