<svg xmlns="http://www.w3.org/2000/svg" width="24" height="24" fill="none" xmlns:v="https://vecta.io/nano"><g clip-path="url(#A)"><path fill-rule="evenodd" d="M13.903 7.323h1.258.193V5.097c-.193 0-.484-.097-.677-.097h-1.355a3.49 3.49 0 0 0-1.935.581c-.677.484-.968 1.161-1.161 1.935-.097.29-.097.677-.097.968v1.548.194H8v2.516h2.129v6.387h2.613v-6.387h2.129l.29-2.516h-.484-2.032V8.387c.29-.774.677-1.065 1.258-1.065z" fill="#191a0b"/><path d="M15.3 23H8.7C3.2 23 1 20.8 1 15.3V8.7C1 3.2 3.2 1 8.7 1h6.6C20.8 1 23 3.2 23 8.7v6.6c0 5.5-2.2 7.7-7.7 7.7z" stroke="#191a0b" stroke-width="1.5" stroke-linejoin="round"/></g><defs><clipPath id="A"><path fill="#fff" d="M0 0h24v24H0z"/></clipPath></defs></svg>