<svg xmlns="http://www.w3.org/2000/svg" width="24" height="24" fill="none" xmlns:v="https://vecta.io/nano"><g clip-path="url(#A)"><path d="M18.619 9.16c-.097-.871-.387-1.548-1.065-2.129s-1.452-.871-2.323-.968c-1.452-.097-5.032-.097-6.29.097-1.452.194-2.323 1.065-2.71 2.419-.29 1.065-.29 6-.097 7.161.194 1.452 1.065 2.419 2.516 2.806.968.29 5.903.194 6.968 0 1.452-.194 2.419-1.064 2.806-2.516.387-1.161.29-5.903.194-6.871zm-1.161 6.29c-.194 1.065-.871 1.839-2.032 1.935-1.065.097-5.613.194-6.581-.097-.871-.29-1.452-.871-1.548-1.742s-.194-5.226 0-6.387c.194-1.065.871-1.742 2.032-1.935 1.161-.097 5.129-.097 6.194 0 1.065.194 1.742.871 1.935 2.032.097.968.194 5.032 0 6.194zm-5.129-6.387a3.26 3.26 0 0 0-3.29 3.29 3.26 3.26 0 0 0 3.29 3.29 3.26 3.26 0 0 0 3.29-3.29 3.26 3.26 0 0 0-3.29-3.29zm0 5.323a2.15 2.15 0 0 1-2.129-2.129 2.15 2.15 0 0 1 2.129-2.129 2.15 2.15 0 0 1 2.129 2.129 2.15 2.15 0 0 1-2.129 2.129zM16.49 8.87c0 .387-.387.774-.774.774s-.774-.387-.774-.774.387-.774.774-.774c.484 0 .774.387.774.774z" fill="#191a0b"/><path d="M15.3 23H8.7C3.2 23 1 20.8 1 15.3V8.7C1 3.2 3.2 1 8.7 1h6.6C20.8 1 23 3.2 23 8.7v6.6c0 5.5-2.2 7.7-7.7 7.7z" stroke="#191a0b" stroke-width="1.5" stroke-linejoin="round"/></g><defs><clipPath id="A"><path fill="#fff" d="M0 0h24v24H0z"/></clipPath></defs></svg>