<svg xmlns="http://www.w3.org/2000/svg" width="24" height="24" fill="none" xmlns:v="https://vecta.io/nano"><g clip-path="url(#A)"><g fill="#191a0b"><path d="M8.713 10.008H6.235v7.995h2.478v-7.995zM7.466 8.954a1.47 1.47 0 0 0 1.466-1.477A1.47 1.47 0 0 0 7.466 6 1.47 1.47 0 0 0 6 7.477c0 .817.66 1.477 1.466 1.477zm5.209 4.848c0-1.125.516-1.791 1.51-1.791.912 0 1.346.641 1.346 1.791v4.199h2.466v-5.066c0-2.143-1.214-3.181-2.912-3.181s-2.409 1.32-2.409 1.32V9.999h-2.378v7.995h2.378c0 .006 0-2.961 0-4.193z"/></g><path d="M15.3 23H8.7C3.2 23 1 20.8 1 15.3V8.7C1 3.2 3.2 1 8.7 1h6.6C20.8 1 23 3.2 23 8.7v6.6c0 5.5-2.2 7.7-7.7 7.7z" stroke="#191a0b" stroke-width="1.5" stroke-linejoin="round"/></g><defs><clipPath id="A"><path fill="#fff" d="M0 0h24v24H0z"/></clipPath></defs></svg>