<svg xmlns="http://www.w3.org/2000/svg" width="24" height="24" fill="none" xmlns:v="https://vecta.io/nano"><rect width="24" height="24" rx="8" fill="#fff"/><rect width="24" height="24" rx="8" fill="#737530" fill-opacity=".2"/><path d="M17.864 5.542H6.406c-.638 0-1.156.503-1.156 1.123v13.213c0 .62.517 1.122 1.156 1.122h11.458c.638 0 1.156-.503 1.156-1.122V6.665c0-.62-.517-1.123-1.156-1.123z" fill="#fff"/><g fill="#737530"><path d="M14.82 4.246h-1.554a1.32 1.32 0 0 0-.432-.886c-.254-.231-.59-.36-.939-.36s-.684.129-.939.36a1.32 1.32 0 0 0-.431.886H8.972a1.39 1.39 0 0 0-.969.39 1.31 1.31 0 0 0-.401.941 1.31 1.31 0 0 0 .401.941 1.39 1.39 0 0 0 .969.39h5.848a1.39 1.39 0 0 0 .969-.39 1.31 1.31 0 0 0 .401-.941 1.31 1.31 0 0 0-.401-.941 1.39 1.39 0 0 0-.969-.39z"/><use href="#B"/><use href="#C"/><path d="M7.7 15.221c.686 0 1.242-.54 1.242-1.207s-.556-1.207-1.242-1.207-1.242.54-1.242 1.207.556 1.207 1.242 1.207z"/><use href="#B" y="4.201"/><use href="#C" y="4.2"/><path d="M17.031 17.172H6.927a.36.36 0 0 0-.364.354.36.36 0 0 0 .364.354h10.104a.36.36 0 0 0 .364-.354.36.36 0 0 0-.364-.354zm-3.839 1.272H6.909c-.191 0-.347.151-.347.337v.034c0 .186.155.337.347.337h6.283c.191 0 .347-.151.347-.337v-.034c0-.186-.155-.337-.347-.337zm3.842 0h-2.642a.36.36 0 0 0-.364.354.36.36 0 0 0 .364.354h2.642a.36.36 0 0 0 .364-.354.36.36 0 0 0-.364-.354zM8.632 8.853H6.563v2.01h2.069v-2.01z"/></g><defs ><path id="B" d="M17.031 8.771h-6.984a.36.36 0 0 0-.364.354.36.36 0 0 0 .364.354h6.984a.36.36 0 0 0 .364-.354.36.36 0 0 0-.364-.354z"/><path id="C" d="M14.956 10.043H9.993c-.171 0-.31.135-.31.301v.106c0 .166.139.301.31.301h4.963c.171 0 .31-.135.31-.301v-.106c0-.166-.139-.301-.31-.301z"/></defs></svg>