<svg xmlns="http://www.w3.org/2000/svg" width="29" height="24" fill="none" xmlns:v="https://vecta.io/nano"><path d="M6.356 3.178H4.691v-.999A2.17 2.17 0 0 1 6.87 0h19.612a2.17 2.17 0 0 1 2.179 2.179v10.472a2.17 2.17 0 0 1-2.179 2.179h-1.09v-1.665h1.09a.51.51 0 0 0 .515-.514V2.179a.51.51 0 0 0-.515-.514H6.87a.51.51 0 0 0-.514.514v.999zM0 17.251V6.779A2.17 2.17 0 0 1 2.179 4.6h19.612a2.17 2.17 0 0 1 2.179 2.179v10.472a2.17 2.17 0 0 1-2.179 2.179h-3.632v-1.362c0-.121 0-.212-.03-.333h3.632a.51.51 0 0 0 .514-.514v-6.537H1.665v6.598a.51.51 0 0 0 .514.515h3.632c0 .121-.03.212-.03.333v1.362H2.179C.968 19.43 0 18.462 0 17.251zm1.665-9.352h20.61v-1.12a.51.51 0 0 0-.514-.514H2.179a.51.51 0 0 0-.514.515v1.12zm13.771 8.111v1.18h.03a.91.91 0 0 1 .908.908v4.994a.91.91 0 0 1-.908.908H8.504a.91.91 0 0 1-.908-.908v-4.994a.91.91 0 0 1 .908-.908h.061v-1.18a3.44 3.44 0 0 1 3.42-3.42c1.907-.03 3.45 1.513 3.45 3.42zm-2.573 4.116a.82.82 0 0 0-.696-.817c-.363-.061-.757.121-.938.484a.85.85 0 0 0 .272 1.029c.061.061.091.091.091.182v1.09c0 .303.333.545.636.363a.42.42 0 0 0 .212-.363v-1.09c0-.091.03-.121.091-.182.212-.182.333-.424.333-.696zm1.059-4.116a1.95 1.95 0 0 0-1.937-1.937 1.95 1.95 0 0 0-1.937 1.937v1.18h3.844v-1.18h.03z" fill="#444"/></svg>