<svg xmlns="http://www.w3.org/2000/svg" width="28" height="28" fill="none" xmlns:v="https://vecta.io/nano"><g clip-path="url(#A)"><path d="M14.045.438C6.562.438.5 6.508.5 14s6.062 13.563 13.545 13.563S27.589 21.492 27.589 14 21.527.438 14.045.438zm4.369 9.188c.967 0 1.748.782 1.748 1.75s-.781 1.75-1.748 1.75-1.748-.782-1.748-1.75.781-1.75 1.748-1.75zm-8.739 0c.967 0 1.748.782 1.748 1.75s-.781 1.75-1.748 1.75-1.748-.782-1.748-1.75.781-1.75 1.748-1.75zm10.639 9.308a8.13 8.13 0 0 1-6.27 2.942 8.13 8.13 0 0 1-6.27-2.942c-.743-.891.601-2.007 1.344-1.121a6.38 6.38 0 0 0 4.926 2.308c1.912 0 3.703-.842 4.926-2.308.732-.886 2.081.23 1.343 1.121z" fill="#737530"/></g><defs><clipPath id="A"><path fill="#fff" transform="translate(.5)" d="M0 0h27.089v28H0z"/></clipPath></defs></svg>