<svg xmlns="http://www.w3.org/2000/svg" width="10" height="11" fill="none" xmlns:v="https://vecta.io/nano"><path d="M5.864 1.222l.882 1.775c.119.245.438.478.707.529l1.596.264c1.02.17 1.258.912.526 1.655L8.329 6.697c-.207.208-.325.617-.257.912l.357 1.548c.282 1.221-.369 1.699-1.439 1.057l-1.496-.894a1.06 1.06 0 0 0-.989 0l-1.496.894c-1.07.636-1.721.164-1.439-1.057l.357-1.548c.069-.289-.05-.699-.257-.912L.425 5.445c-.732-.736-.494-1.479.526-1.655l1.596-.264c.269-.044.588-.283.707-.529l.882-1.775c.469-.963 1.245-.963 1.727 0z" fill="#008a00"/></svg>