<svg xmlns="http://www.w3.org/2000/svg" width="29" height="28" fill="none" xmlns:v="https://vecta.io/nano"><g clip-path="url(#A)"><path d="M14.5 28.001c7.732 0 14-6.268 14-14s-6.268-14-14-14S.5 6.268.5 14s6.268 14 14 14z" fill="#4c4d27"/><g fill="#7d8035"><path d="M18.302 6.295l1.192-.004a.38.38 0 0 1 .387.203l.688 1.045a.5.5 0 0 0 .38.239l2.496.418a.76.76 0 0 0 .378-.049L26.5 7.24c.21-.075.219.065.27.163a13.46 13.46 0 0 1 1.392 3.91c.702 3.77-.011 7.257-2.1 10.47-.138.213-.219.275-.415.05-.287-.328-.61-.626-.924-.929-.108-.104-.174-.212-.151-.365v-.029c.149-1.18-.156-2.241-.767-3.252-.384-.635-.671-1.328-1.012-1.99-.102-.193-.151-.409-.143-.627.011-.457-.004-.914.007-1.37a.37.37 0 0 0-.19-.363c-.369-.232-.733-.474-1.09-.726a.45.45 0 0 0-.202-.083c-.073-.011-.148-.003-.217.023-.373.103-.759.163-1.123.289-.393.136-.734.091-1.107-.081-.865-.399-1.747-.759-2.622-1.136-.12-.051-.223-.09-.245-.256l-.418-2.947c-.031-.202.028-.332.17-.467a32.08 32.08 0 0 0 1.053-1.054.54.54 0 0 1 .445-.179c.398.012.795.004 1.193.004zM5.26 12.986c.146.008.194-.123.273-.201l1.184-1.186.844 1.692c.085.179.183.239.382.239l2.831-.011c.22-.004.336.071.443.256l1.171 1.972a.35.35 0 0 0 .355.202l1.43-.007c.171 0 .26.024.216.229l-.418 2.072c-.023.12-.107.186-.179.262l-1.603 1.6a.53.53 0 0 0-.134.19.54.54 0 0 0-.042.229c0 .405.14.869-.054 1.198-.186.317-.607.494-.918.739s-.757.405-.905.743c-.143.326-.039.761-.041 1.147v1.22l-1.321-.434c-.108-.035-.146-.119-.185-.216l-.83-2.072a1.04 1.04 0 0 1-.06-.408l.004-4.321c0-.188-.038-.277-.246-.313l-1.985-.391a.36.36 0 0 1-.172-.071c-.05-.038-.088-.09-.112-.149l-.798-1.603c-.134-.265-.033-.549-.076-.82-.085-.55.094-.971.538-1.315.163-.125.355-.254.418-.478l-.01.006z"/><path d="M5.262 12.977c-.234-.067-.408-.239-.605-.365l-2.083-1.38a.6.6 0 0 1-.262-.339l-.704-2.117a.49.49 0 0 1-.033-.2c.003-.068.02-.135.05-.197C3.145 5.02 5.592 2.6 8.965 1.12c.176-.077.315-.078.459.054.837.767 1.887.947 2.957 1.076.295.035.587.098.881.141.155.023.196.08.139.239a24.95 24.95 0 0 0-.359 1.072c-.011.053-.037.102-.075.141a.29.29 0 0 1-.139.079c-.105.027-.205.083-.311.099-.738.113-1.218.53-1.512 1.209-.482 1.115-1.327 1.842-2.378 2.45-.858.499-1.749.64-2.676.773l-1.415.194c-.179.022-.218.102-.243.281-.12.842.091 1.534.821 2.026.113.076.155.187.152.332l-.01 1.698.006-.006zM17.983 2.428c.705.205 1.368-.239 2.018-.62.512-.299.905-.266 1.397.039 1.076.668 2.089 1.409 2.988 2.307.152.152.168.245-.034.341a.97.97 0 0 0-.1.065c-.387.239-.725.645-1.155.705s-.89-.147-1.34-.225c-.773-.136-1.531-.344-2.264-.622a.72.72 0 0 0-.461-.017l-1.354.348a.98.98 0 0 1-.663-.023c-.302-.124-.617-.218-.931-.314-.13-.04-.183-.078-.108-.225l.812-1.625a.22.22 0 0 1 .233-.137l.962.002z"/></g></g><defs><clipPath id="A"><path fill="#fff" transform="translate(.5)" d="M0 0h28v28H0z"/></clipPath></defs></svg>