<svg xmlns="http://www.w3.org/2000/svg" width="26" height="26" fill="none" xmlns:v="https://vecta.io/nano"><path d="M25.125 20.068v-.001c-.004-.397-.326-.717-.719-.717H22.97c3.495-5.56 1.625-13.421-4.002-16.741C10.309-2.61-.531 4.676 1.025 14.831c.836 6.115 6.589 10.745 12.68 10.214.114.05.238.08.367.08h10.331c.401 0 .722-.328.722-.73v-4.327zm-11.576-5.084v.002l-.351 1.478a.33.33 0 0 0-.004.148v7.609a10.86 10.86 0 0 1-3.333-.39c.064-.122.189-.203.328-.207h.778 0 .008c.614-.037 1.098-.53 1.134-1.149a1.22 1.22 0 0 0-1.134-1.294h0-.008-5.719a11.24 11.24 0 0 1-1.367-1.551h2.894a1.46 1.46 0 0 0 1.066-.428c.486-.455.532-1.129.309-1.67s-.727-.979-1.377-.946h-.721c-.402-.031-.709-.386-.681-.798h0c.028-.416.381-.725.785-.699h0 .008 5.208c1.373 0 2.48-1.126 2.48-2.513s-1.107-2.514-2.48-2.514H6.966c-.331 0-.604-.271-.604-.614s.273-.615.607-.615h1.772c.388.003.762-.154 1.037-.432a1.5 1.5 0 0 0 .432-1.046h0c.006-.828-.647-1.507-1.467-1.516h0-.002H4.23C7.307 2.029 12.467.708 16.943 2.551h-4.275c-.719 0-1.295.59-1.295 1.312s.576 1.312 1.295 1.312h2.73v.001l.013-.001c.021-.002.043-.002.069 0h0a.44.44 0 0 1 .394.476v.001c-.019.242-.229.421-.466.402h0-.01-.579a1.4 1.4 0 0 0-.978.404h0c-.562.553-.575 1.462-.033 2.031.263.277.626.434 1.006.434h8.337c1.303 3.438.871 7.301-1.154 10.352v-2.651c.003-.036.003-.07-.001-.106l-.004-.044-.007-.007-.008-.032-.042-.172-.126-.521-.125-.52-.041-.171-.012-.048-.003-.013-.001-.003h0v-.001a.42.42 0 0 0-.398-.325h0-.003-7.271 0-.003c-.192.004-.357.138-.403.323zm5.843 5.071v.001 4.226H14.06c-.013 0-.025-.005-.035-.014l-.005-.031v-.012-.062-.235-.835-2.526l.001-2.523v-.831-.19h1.919v2.215a.43.43 0 0 0 .207.365h0l.003.002c.129.074.287.073.417.001h0l.004-.002 1.008-.607 1.07.612h0l.003.001c.058.032.127.055.203.055a.42.42 0 0 0 .419-.42v-2.221h1.877v2.315h-1.042c-.394 0-.712.325-.716.717zm2.203 1.911h0l.005-.003.638-.409.678.386.001.001c.13.072.288.073.417-.001h0l.004-.003a.44.44 0 0 0 .202-.361h0v-.003-1.399h.725v4.098H20.25v-4.071h.716v1.399a.42.42 0 0 0 .213.367c.128.074.287.073.415 0zm-.7-6.47l.148.693H19.17l-.152-.693h1.876zm-6.601 0h1.878l-.156.693h-1.889l.168-.693z" fill="#444" stroke="#444" stroke-width=".25"/></svg>