<svg xmlns="http://www.w3.org/2000/svg" width="29" height="28" fill="none" xmlns:v="https://vecta.io/nano"><g clip-path="url(#A)"><path d="M12.608.052l.919-.047c.349-.034.381.12.261.396a29.75 29.75 0 0 1-1.992 3.863 29.1 29.1 0 0 1-6.565 7.467c-.652.524-.749 1.18-.291 1.885 1.636 2.497 5.251 2.892 7.424.794 1.334-1.287 2.49-2.751 3.437-4.35.362-.615.536-.632.952-.079a30.54 30.54 0 0 0 7.193 6.859c.668.459.759.947.334 1.645l-.229.349c-.427.643-.957.749-1.592.319a28.59 28.59 0 0 1-4.967-4.255l-.57-.612c-.344-.337-.754-.337-1.074-.02-.072.071-.129.156-.168.25a.77.77 0 0 0 0 .592c.039.094.096.179.168.25 1.623 1.842 3.461 3.479 5.474 4.874.473.325.864.715.657 1.305s-.578 1.088-1.226 1.27c-.151.035-.309.033-.459-.004a1 1 0 0 1-.41-.21c-2.048-1.445-4.045-2.954-5.728-4.837-.236-.265-.51-.447-.881-.302-.145.051-.271.146-.361.271s-.139.277-.14.432c-.015.303.167.523.352.733a32.42 32.42 0 0 0 4.01 3.709l1.17.861c.57.413.722 1.012.383 1.518-.461.688-1.134.894-1.748.506-2.12-1.377-4.052-3.03-5.746-4.915a1 1 0 0 0-.617-.394c-.144-.027-.293-.009-.426.051s-.246.16-.322.286c-.216.354-.125.661.132.954.886 1.004 1.841 1.943 2.857 2.812.704.61 1.439 1.184 2.201 1.72.55.383.705 1.012.393 1.492-.361.551-1.003.674-1.606.278-4.383-2.822-7.933-6.782-10.277-11.465a28.55 28.55 0 0 1-2.475-7.14 25.53 25.53 0 0 1-.553-4.409c-.022-.772.334-1.308 1.003-1.647A28.37 28.37 0 0 1 12.608.052z" fill="#4c4d27"/><path d="M28.491 5.245a29.43 29.43 0 0 1-1.427 7.215c-.363 1.088-.805 2.14-1.256 3.19-.147.337-.282.422-.633.187a29.7 29.7 0 0 1-7.352-6.93c-.638-.843-1.616-1.079-2.463-.6-.292.165-.534.407-.698.701a21.03 21.03 0 0 1-3.195 4.168c-1.362 1.403-3.612 1.43-4.924.054-.249-.261-.262-.415.035-.663 3.376-2.8 6.106-6.31 7.998-10.285.313-.652.595-1.322.87-1.993.029-.092.09-.17.172-.219a.39.39 0 0 1 .273-.05c3.975.191 7.868 1.209 11.435 2.991 1.024.507 1.211.843 1.165 2.234z" fill="#7d8035"/></g><defs><clipPath id="A"><path fill="#fff" transform="translate(.5)" d="M0 0h28v28H0z"/></clipPath></defs></svg>